<svg width="42" height="42" viewBox="0 0 42 42" fill="none" xmlns="http://www.w3.org/2000/svg">
<path d="M35.9591 8.97495C36.7102 8.37648 36.8389 7.27669 36.1802 6.57782C33.6479 3.89115 30.4423 1.91372 26.8823 0.860449C22.7649 -0.357754 18.3725 -0.280794 14.3002 1.0809C10.228 2.4426 6.67273 5.02321 4.11621 8.47308C1.55969 11.923 0.125465 16.0753 0.0078565 20.3676C-0.109752 24.6599 1.09494 28.8846 3.45871 32.4692C5.82249 36.0539 9.23107 38.8254 13.2226 40.408C17.2142 41.9906 21.5958 42.308 25.7738 41.3171C29.3861 40.4604 32.6952 38.6614 35.3708 36.1175C36.0668 35.4557 35.9985 34.3505 35.2813 33.7118V33.7118C34.5641 33.0731 33.4703 33.1442 32.7635 33.7943C30.5703 35.8116 27.8894 37.2411 24.9712 37.9332C21.4871 38.7595 17.8332 38.4949 14.5045 37.1751C11.1758 35.8553 8.33331 33.5441 6.3621 30.5547C4.39089 27.5654 3.38626 24.0423 3.48434 20.4629C3.58242 16.8834 4.77845 13.4207 6.9104 10.5437C9.04235 7.66677 12.0072 5.51474 15.4031 4.37918C18.7991 3.24363 22.462 3.17945 25.8957 4.19534C28.7716 5.04621 31.3702 6.62032 33.4496 8.75471C34.1198 9.44258 35.208 9.57342 35.9591 8.97495V8.97495Z" fill="#FA1E51"/>
<path d="M30.4353 12.9431C31.1625 12.4004 31.2888 11.4001 30.6258 10.7891C29.0096 9.30102 27.0224 8.20028 24.8331 7.59306C22.1036 6.83632 19.1917 6.88422 16.492 7.73008C13.7923 8.57594 11.4354 10.179 9.74071 12.3217C8.19674 14.2737 7.2704 16.5877 7.05859 18.9999C7.14546 19.9245 7.05859 20.7057 8.65168 20.7057C10.2448 20.7057 10.0253 20.1516 10.4406 18.9999C10.6419 17.2661 11.3316 15.6085 12.4457 14.2C13.7294 12.5766 15.5148 11.3626 17.5597 10.722C19.6046 10.0811 21.8102 10.0448 23.8778 10.6183C25.4047 11.0415 26.8015 11.782 27.969 12.7765C28.6569 13.3625 29.7083 13.4862 30.4353 12.9431Z" fill="#FA1E51"/>
<path d="M30.4353 28.9387C31.1625 29.4814 31.2888 30.4818 30.6258 31.0927C29.0096 32.5808 27.0224 33.6816 24.8331 34.2888C22.1036 35.0455 19.1917 34.9976 16.492 34.1518C13.7923 33.3059 11.4354 31.7029 9.74071 29.5601C8.19674 27.6081 7.2704 25.2942 7.05859 22.8819C7.14546 21.9573 7.05859 21.1762 8.65168 21.1762C10.2448 21.1762 10.0253 21.7302 10.4406 22.8819C10.6419 24.6157 11.3316 26.2733 12.4457 27.6818C13.7294 29.3052 15.5148 30.5193 17.5597 31.1598C19.6046 31.8008 21.8102 31.837 23.8778 31.2635C25.4047 30.8404 26.8015 30.0999 27.969 29.1053C28.6569 28.5193 29.7083 28.3957 30.4353 28.9387Z" fill="#FA1E51"/>
<rect x="12.7061" y="19.7646" width="11.7647" height="2.35294" rx="1.17647" fill="#FA1E51"/>
</svg>
